<svg width="48" height="48" viewBox="0 0 48 48" fill="none" xmlns="http://www.w3.org/2000/svg">
<path fill-rule="evenodd" clip-rule="evenodd" d="M24.0124 8.96722L22.5796 7.64669C20.6228 5.63878 17.2616 4.12389 14.0394 4.12389C10.8265 4.12389 7.79815 5.37154 5.52692 7.62833C3.24646 9.89428 1.99082 12.9033 2.00005 16.105C2.00005 19.3067 3.26493 22.3066 5.5454 24.5726L22.6514 41.6477V41.6477C23.4044 42.3959 24.6203 42.3959 25.3733 41.6477V41.6477L42.4546 24.4487C44.7351 22.1827 46 19.1828 46 15.9811C46.0092 12.7794 44.7535 9.77039 42.4731 7.50443C40.2019 5.24765 37.1735 4 33.9606 4C30.7384 4 27.1879 5.58648 25.4204 7.52279L24.0124 8.96722Z" fill="#5884C9"/>
</svg>
