<svg width="48" height="48" viewBox="0 0 48 48" fill="none" xmlns="http://www.w3.org/2000/svg">
<path fill-rule="evenodd" clip-rule="evenodd" d="M24.0124 8.96722L22.5796 7.64669C20.6228 5.63878 17.2616 4.12389 14.0394 4.12389C10.8265 4.12389 7.79815 5.37154 5.52692 7.62833C3.24646 9.89428 1.99082 12.9033 2.00005 16.105C2.00005 19.3067 3.26493 22.3066 5.5454 24.5726L22.6514 41.6477V41.6477C23.4044 42.3959 24.6203 42.3959 25.3733 41.6477V41.6477L42.4546 24.4487C44.7351 22.1827 45.9999 19.1828 45.9999 15.9811C46.0092 12.7794 44.7535 9.77039 42.4731 7.50443C40.2018 5.24765 37.1735 4 33.9606 4C30.7384 4 27.1879 5.58648 25.4204 7.52279L24.0124 8.96722ZM24.9197 11.8973C24.4177 12.3961 23.6071 12.3961 23.1051 11.8973V11.8973L20.6228 9.78989C18.8132 7.9918 16.5969 7.08528 14.0394 7.08529C11.4912 7.08529 9.72091 8.00096 7.92055 9.78988C6.11095 11.5788 5.39825 13.5639 5.39825 16.105C5.39825 18.6462 6.11096 20.6212 7.92056 22.4193L24.0124 38.4923L40.0794 22.2954C41.889 20.4973 42.6017 18.5223 42.6017 15.9811C42.6017 13.44 41.8891 11.4549 40.0795 9.66599C38.2791 7.87707 36.5088 6.96139 33.9606 6.96139C31.4031 6.96139 29.1868 7.86791 27.3772 9.66599L24.9197 11.8973V11.8973Z" fill="#3F5C8A"/>
</svg>
